# xmcd
# 
# Track frame offsets:
#     150
#     17417
#     45265
#     55819
#     71072
#     83675
#     102269
#     116837
#     139930
#     158751
#     172359
#     187797
#     204533
#     221568
# 
# Disc length: 3252
# 
# Revision: 1
# Processed by: cddbd v1.5.2PL0 Copyright (c) Steve Scherf et al.
# Submitted via: fre:ac v1.1beta2
# 
DISCID=bf0cb20e
DTITLE=Various Artist - Jazz The Two Of Us - Disc 2
DYEAR=2006
DGENRE=Jazz
TTITLE0=Laura Fygi - I Love You For Sentimental Reasons
TTITLE1=Diana Krall - I've Got You Under My Skin
TTITLE2=Astrud Gilberto - Fly Me To The Moon
TTITLE3=Matt Dusk - Please Please Me
TTITLE4=Dinah Washington - Mad About The Boy
TTITLE5=Claressa Monteiro and Steven Bishop - On And On
TTITLE6=Shirley Bassey - My Funny Valentine
TTITLE7=Brian Culbertson feat. Will Downing - It's On Tonight
TTITLE8=Natalie Cole - Tell Me About It
TTITLE9=Sarah Vaughan - Misty
TTITLE10=Louis Armstrong - La Vie En Rose
TTITLE11=Mel Torme - Blue Moon
TTITLE12=Laura Fygi - What Are You Doing The Rest Of Your Life
TTITLE13=Silje Nergaard - Be Still My Heart
EXTD=
EXTT0=
EXTT1=
EXTT2=
EXTT3=
EXTT4=
EXTT5=
EXTT6=
EXTT7=
EXTT8=
EXTT9=
EXTT10=
EXTT11=
EXTT12=
EXTT13=
PLAYORDER=
